<svg width="27" height="26" viewBox="0 0 27 26" fill="none" xmlns="http://www.w3.org/2000/svg">
<path d="M10.4126 0.136719C6.79119 0.136719 3.85547 3.07246 3.85547 6.69386C3.85547 10.3153 6.79119 13.2511 10.4126 13.2511C14.034 13.2511 16.9698 10.3153 16.9698 6.69386C16.9698 3.07246 14.034 0.136719 10.4126 0.136719Z" fill="white"/>
<path d="M14.2839 15.4088C11.7204 15.0148 9.1082 15.0148 6.5447 15.4088L6.26991 15.451C2.65784 16.0061 0 19.0064 0 22.5288C0 24.43 1.60047 25.9713 3.57476 25.9713H17.2537C19.228 25.9713 20.8286 24.43 20.8286 22.5288C20.8286 19.0064 18.1707 16.0061 14.5587 15.451L14.2839 15.4088Z" fill="white"/>
<path fill-rule="evenodd" clip-rule="evenodd" d="M22.7584 8.88281C23.3975 8.88281 23.9156 9.38171 23.9156 9.99713V11.8543H25.8442C26.4832 11.8543 27.0013 12.3533 27.0013 12.9686C27.0013 13.584 26.4832 14.0829 25.8442 14.0829H23.9156V15.9401C23.9156 16.5555 23.3975 17.0545 22.7584 17.0545C22.1194 17.0545 21.6013 16.5555 21.6013 15.9401V14.0829H19.6727C19.0336 14.0829 18.5156 13.584 18.5156 12.9686C18.5156 12.3533 19.0336 11.8543 19.6727 11.8543H21.6013V9.99713C21.6013 9.38171 22.1194 8.88281 22.7584 8.88281Z" fill="white"/>
</svg>
