<svg width="37" height="37" viewBox="0 0 37 37" fill="none" xmlns="http://www.w3.org/2000/svg">
<path d="M24.667 12.7704C26.1007 12.7704 26.8176 12.7704 27.4058 12.9222C29.0017 13.334 30.2484 14.5346 30.6761 16.0715C30.8337 16.6378 30.8337 17.3282 30.8337 18.7089V27.6165C30.8337 29.2564 29.4532 30.5857 27.7503 30.5857M27.7503 30.5857C26.0474 30.5857 24.667 29.2564 24.667 27.6165V11.5828C24.667 9.91984 24.667 9.08839 24.3309 8.45325C24.0354 7.89455 23.5636 7.44032 22.9835 7.15566C22.324 6.83203 21.4605 6.83203 19.7337 6.83203H11.1003C9.37349 6.83203 8.51008 6.83203 7.85052 7.15566C7.27035 7.44032 6.79866 7.89455 6.50306 8.45325C6.16699 9.08839 6.16699 9.91984 6.16699 11.5828V25.8349C6.16699 27.4978 6.16699 28.3294 6.50306 28.9645C6.79866 29.5231 7.27035 29.9774 7.85052 30.262C8.51008 30.5857 9.37349 30.5857 11.1003 30.5857H27.7503Z" stroke="white" stroke-width="1.924"/>
<path d="M18.5007 12.7695H12.334V18.7079H18.5007V12.7695Z" stroke="white" stroke-width="1.924" stroke-linejoin="round"/>
<path d="M12.334 24.6484H18.5007" stroke="white" stroke-width="1.924" stroke-linecap="round"/>
</svg>
