<svg width="31" height="26" viewBox="0 0 31 26" fill="none" xmlns="http://www.w3.org/2000/svg">
<path d="M5.96757 17.1157H6.34805H7.11205V17.1127C7.11205 17.1142 7.32139 17.1142 7.34126 17.1135C8.88302 17.0326 16.8501 16.8817 21.6053 21.2696C21.6175 21.2814 21.6297 21.2902 21.6419 21.302C21.7275 21.3814 21.82 21.4513 21.9032 21.5337C21.9048 21.5352 21.9063 21.5352 21.9078 21.5367C22.6588 22.1856 23.4985 22.5564 24.3947 22.5564C27.6042 22.5564 30.0254 17.9073 30.0254 11.7427C30.0254 5.57875 27.6042 0.929688 24.3947 0.929688C23.5252 0.929688 22.7085 1.27769 21.9743 1.88981C15.5375 7.23413 7.51392 7.54903 7.44593 7.55123H6.34805H5.94465C3.12547 7.55123 1 9.49944 1 12.084V12.2283C1 14.8776 3.27521 17.1157 5.96757 17.1157ZM29.2614 11.7434C29.2614 17.3004 27.0786 21.8214 24.3947 21.8214C21.6618 21.8214 19.353 17.2062 19.353 11.7434C19.353 6.28063 21.6618 1.66541 24.3947 1.66541C27.0778 1.66541 29.2614 6.18646 29.2614 11.7434ZM7.45815 8.28696C7.53226 8.28696 14.1302 8.03093 20.2721 4.06021C19.2269 6.00621 18.589 8.71 18.589 11.7434C18.589 14.6907 19.1948 17.321 20.188 19.253C15.2801 16.1813 8.88073 16.3057 7.44134 16.38H6.62997C6.34499 15.4301 5.44881 11.9656 6.62538 8.28696H7.45815ZM1.76401 12.084C1.76401 9.95485 3.50671 8.3495 5.83158 8.29726C4.76044 11.817 5.48319 15.1454 5.83234 16.3733C3.61367 16.299 1.76401 14.4332 1.76401 12.2275V12.084Z" fill="#808184" stroke="white" stroke-width="1.67657"/>
<path d="M20.4818 9.02344H20.0998C19.8889 9.02344 19.7178 9.18824 19.7178 9.3913C19.7178 9.59436 19.8889 9.75916 20.0998 9.75916H20.4818C21.5705 9.75916 22.3918 10.5184 22.3918 11.5462C22.3918 12.5895 21.5346 13.4378 20.4818 13.4378H20.0998C19.8889 13.4378 19.7178 13.6026 19.7178 13.8057C19.7178 14.0087 19.8889 14.1735 20.0998 14.1735H20.4818C21.9563 14.1735 23.1558 12.9949 23.1558 11.5256C23.1558 10.1226 21.9808 9.02344 20.4818 9.02344Z" fill="#808184" stroke="white" stroke-width="1.67657"/>
<path d="M7.49431 18.2188C7.28344 18.2188 7.1123 18.3836 7.1123 18.5866V21.4935C7.1123 23.1364 8.48293 24.4724 10.1683 24.4724C11.8537 24.4724 13.2244 23.1364 13.2244 21.4935V18.5866C13.2244 18.3836 13.0532 18.2188 12.8424 18.2188C12.6315 18.2188 12.4604 18.3836 12.4604 18.5866V21.4935C12.4604 22.7302 11.432 23.7367 10.1683 23.7367C8.90466 23.7367 7.87631 22.7302 7.87631 21.4935V18.5866C7.87631 18.3836 7.70517 18.2188 7.49431 18.2188Z" fill="#808184" stroke="white" stroke-width="1.67657"/>
</svg>
