<svg width="34" height="35" viewBox="0 0 34 35" fill="none" xmlns="http://www.w3.org/2000/svg">
<path d="M10.151 0C7.04552 0 4.51562 2.52989 4.51562 5.63537C4.51562 8.74085 7.04552 11.2707 10.151 11.2707C13.2565 11.2707 15.7864 8.74085 15.7864 5.63537C15.7864 2.52989 13.2565 0 10.151 0ZM10.151 9.38336C8.08291 9.38336 6.40301 7.70346 6.40301 5.63537C6.40301 3.56728 8.08291 1.88738 10.151 1.88738C12.2191 1.88738 13.899 3.56728 13.899 5.63537C13.899 7.70346 12.2191 9.38336 10.151 9.38336Z" fill="white"/>
<path d="M33.3236 21.5538L31.6571 21.0585C31.5567 20.764 31.4363 20.4829 31.3024 20.2018L32.1323 18.6692C32.3331 18.3011 32.2662 17.846 31.9717 17.5515L30.0575 15.6373C29.763 15.3428 29.3079 15.2759 28.9398 15.4767L27.4072 16.3066C27.1328 16.1727 26.845 16.059 26.5505 15.9519L26.0552 14.2854C25.9347 13.8838 25.5666 13.6094 25.1517 13.6094H22.4478C22.0328 13.6094 21.6647 13.8838 21.5442 14.2854L21.049 15.9519C20.7545 16.0523 20.4734 16.1727 20.1923 16.3066L20.0584 16.233C19.6769 15.2358 18.9006 14.4326 17.9033 14.0444C16.4242 13.4621 14.8782 13.0472 13.3054 12.8129C12.8971 12.746 12.4955 12.9602 12.3148 13.335L10.1396 17.7991L7.97117 13.3417C7.79046 12.9736 7.38889 12.7594 6.98063 12.8196C5.41451 13.0539 3.87515 13.4688 2.41611 14.0444C0.970461 14.5999 0 16.0188 0 17.5649V25.2215C0 25.7435 0.421649 26.1652 0.94369 26.1652H14.6172L15.9356 26.56C16.036 26.8545 16.1565 27.1356 16.2904 27.4167L15.4605 28.9494C15.2597 29.3175 15.3266 29.7726 15.6211 30.0671L17.5352 31.9812C17.8297 32.2757 18.2848 32.3426 18.6529 32.1419L20.1856 31.3119C20.46 31.4458 20.7478 31.5596 21.0423 31.6667L21.5375 33.3332C21.658 33.7348 22.0261 34.0092 22.4411 34.0092H25.145C25.5599 34.0092 25.9281 33.7348 26.0485 33.3332L26.5438 31.6667C26.8383 31.5663 27.1194 31.4458 27.4005 31.3119L28.9331 32.1419C29.3012 32.3426 29.7564 32.2757 30.0508 31.9812L31.965 30.0671C32.2595 29.7726 32.3264 29.3175 32.1256 28.9494L31.2957 27.4167C31.4296 27.1423 31.5433 26.8545 31.6504 26.56L33.3169 26.0648C33.7185 25.9443 33.9929 25.5762 33.9929 25.1612V22.4573C33.9996 22.0424 33.7252 21.6743 33.3236 21.5538ZM14.2758 21.5605C13.8743 21.681 13.5998 22.0491 13.5998 22.464V24.2845H1.88738V22.6046H3.30626C3.8283 22.6046 4.24995 22.1829 4.24995 21.6609C4.24995 21.1388 3.8283 20.7172 3.30626 20.7172H1.88738V18.8298H5.66214C6.18418 18.8298 6.60583 18.4082 6.60583 17.8861C6.60583 17.3641 6.18418 16.9424 5.66214 16.9424H2.00116C2.18187 16.4338 2.57674 16.0054 3.09878 15.8046C4.22318 15.3629 5.38773 15.0283 6.57906 14.8007L9.28966 20.3692C9.45029 20.6971 9.77824 20.8979 10.1396 20.8979C10.5011 20.8979 10.829 20.6904 10.9896 20.3692L13.7069 14.794C14.9049 15.0149 16.0829 15.3562 17.214 15.8046C17.2541 15.818 17.2876 15.8448 17.3211 15.8649L15.6278 17.5582C15.3333 17.8527 15.2664 18.3078 15.4671 18.6759L16.2971 20.2085C16.1632 20.4829 16.0494 20.7707 15.9423 21.0652L14.2758 21.5605ZM32.1122 24.4585L30.6398 24.9002C30.3319 24.9939 30.091 25.2415 30.004 25.5494C29.8634 26.0447 29.6693 26.5266 29.4217 26.9683C29.2611 27.2494 29.2611 27.5974 29.415 27.8785L30.1445 29.2305L29.2276 30.1474L27.8757 29.4179C27.5879 29.2639 27.2465 29.2639 26.9654 29.4246C26.5237 29.6722 26.0485 29.8663 25.5466 30.0068C25.232 30.0939 24.9911 30.3348 24.8974 30.6427L24.4556 32.1151H23.1572L22.7155 30.6427C22.6218 30.3348 22.3742 30.0939 22.0663 30.0068C21.5643 29.8663 21.0891 29.6722 20.6474 29.4246C20.3663 29.2639 20.0183 29.2639 19.7372 29.4179L18.3852 30.1474L17.4683 29.2305L18.1978 27.8785C18.3518 27.5907 18.3518 27.2494 18.1911 26.9683C17.9435 26.5266 17.7494 26.0514 17.6089 25.5494C17.5218 25.2349 17.2809 24.9939 16.9663 24.9002L15.4939 24.4585V23.1601L16.9663 22.7183C17.2742 22.6246 17.5218 22.377 17.6089 22.0691C17.7494 21.5672 17.9435 21.092 18.1911 20.6503C18.3518 20.3692 18.3518 20.0211 18.1978 19.74L17.4683 18.3881L18.3852 17.4712L19.7372 18.2007C20.025 18.3546 20.3663 18.3546 20.6474 18.194C21.0891 17.9464 21.5643 17.7523 22.0663 17.6117C22.3808 17.5247 22.6218 17.2838 22.7155 16.9759L23.1572 15.5035H24.4556L24.8974 16.9759C24.9911 17.2838 25.2387 17.5247 25.5466 17.6117C26.0485 17.7523 26.5237 17.9464 26.9654 18.194C27.2465 18.3546 27.5946 18.3546 27.8757 18.2007L29.2276 17.4712L30.1445 18.3881L29.415 19.74C29.2611 20.0278 29.2611 20.3692 29.4217 20.6503C29.6693 21.092 29.8634 21.5672 30.004 22.0691C30.091 22.3837 30.3319 22.6246 30.6398 22.7183L32.1122 23.1601V24.4585Z" fill="white"/>
<path d="M23.8007 19.7305C21.5586 19.7305 19.7314 21.5576 19.7314 23.7997C19.7314 26.0418 21.5586 27.869 23.8007 27.869C26.0428 27.869 27.8699 26.0418 27.8699 23.7997C27.8699 21.5576 26.0428 19.7305 23.8007 19.7305ZM23.8007 25.9749C22.6027 25.9749 21.6255 24.9977 21.6255 23.7997C21.6255 22.6017 22.6027 21.6245 23.8007 21.6245C24.9987 21.6245 25.9759 22.6017 25.9759 23.7997C25.9759 24.9977 24.9987 25.9749 23.8007 25.9749Z" fill="white"/>
</svg>
